<?xml version="1.0" standalone="no"?>
<!DOCTYPE svg PUBLIC "-//W3C//DTD SVG 20010904//EN"
 "http://www.w3.org/TR/2001/REC-SVG-20010904/DTD/svg10.dtd">
<svg version="1.0" xmlns="http://www.w3.org/2000/svg"
 width="840.000000pt" height="840.000000pt" viewBox="0 0 840.000000 840.000000"
 preserveAspectRatio="xMidYMid meet">
<metadata>
Created by potrace 1.14, written by Peter Selinger 2001-2017
</metadata>
<g transform="translate(0.000000,840.000000) scale(0.100000,-0.100000)"
fill="#000000" stroke="none">
<path d="M2072 6878 c-20 -20 -14 -49 37 -163 291 -657 560 -1628 717 -2590
20 -126 38 -232 40 -234 2 -2 32 13 68 33 79 44 75 16 41 319 -101 876 -232
1536 -432 2167 -31 96 -58 182 -60 191 -4 14 79 16 874 22 483 4 1106 7 1384
7 l507 0 62 -82 c35 -46 77 -98 94 -115 53 -58 99 -35 78 39 -16 57 -121 348
-137 377 -8 16 -22 31 -30 35 -9 3 -740 6 -1624 6 -1237 0 -1610 -3 -1619 -12z"/>
<path d="M3430 6219 c-43 -25 -79 -75 -91 -126 -5 -21 -9 -463 -9 -982 0 -864
1 -943 16 -937 9 3 195 123 414 265 l399 260 399 -205 c220 -112 406 -204 414
-204 30 0 585 390 846 593 l102 80 -2 571 c-3 639 -1 617 -76 674 l-35 27
-1171 2 c-1165 3 -1171 3 -1206 -18z m2140 -441 c25 -13 55 -38 67 -57 22 -32
23 -44 23 -216 0 -173 -1 -184 -23 -216 -49 -73 14 -69 -1007 -69 -1021 0
-958 -4 -1007 69 -22 32 -23 44 -23 213 0 190 4 211 52 254 12 12 37 26 53 32
20 7 329 11 925 11 l896 1 44 -22z"/>
<path d="M1206 4128 c-547 -979 -1165 -2093 -1162 -2095 2 -2 65 24 140 57
331 147 707 243 1161 297 211 25 793 25 1013 0 441 -50 823 -145 1170 -289 79
-33 145 -58 148 -55 7 6 -152 104 -277 170 -685 364 -1601 464 -2668 293 -78
-12 -141 -22 -141 -21 0 1 184 352 409 781 l410 779 185 3 185 2 79 103 c43
56 82 108 86 115 6 9 -61 12 -323 12 l-329 0 -86 -152z"/>
<path d="M6476 4268 c4 -7 43 -59 86 -115 l79 -103 185 -2 185 -3 410 -779
c225 -429 409 -780 409 -781 0 -1 -63 9 -141 21 -1067 171 -1983 71 -2668
-293 -125 -66 -284 -164 -277 -170 3 -3 69 22 148 55 347 144 729 239 1170
289 220 25 802 25 1013 0 454 -54 830 -150 1161 -297 75 -33 138 -59 140 -57
2 1 -278 507 -621 1122 l-624 1120 -331 3 c-265 2 -330 0 -324 -10z"/>
<path d="M3007 3282 l-49 -16 4 -341 c3 -187 8 -348 12 -358 10 -21 54 -33 75
-20 18 11 23 88 35 521 7 263 14 244 -77 214z"/>
<path d="M1066 2174 c-82 -13 -150 -25 -151 -26 -1 -2 -71 -122 -155 -268 -85
-146 -177 -305 -206 -355 -29 -49 -49 -91 -45 -93 4 -1 61 21 127 49 494 213
1015 365 1524 443 325 50 461 60 842 60 196 1 355 2 354 3 -6 6 -203 43 -326
62 -215 32 -378 43 -630 43 -405 0 -757 -43 -1157 -142 -141 -34 -151 -36
-142 -17 6 10 42 72 81 136 39 64 72 119 75 124 6 10 -25 7 -191 -19z"/>
<path d="M7171 2179 c6 -12 42 -74 81 -138 39 -64 72 -119 74 -122 2 -3 -65
11 -149 31 -400 99 -752 142 -1157 142 -252 0 -415 -11 -630 -43 -123 -19
-320 -56 -326 -62 -1 -1 158 -2 354 -3 381 0 517 -10 842 -60 510 -78 1029
-229 1523 -443 65 -28 123 -51 127 -51 5 0 -15 42 -44 93 -48 84 -357 619
-361 624 -2 3 -321 53 -336 53 -6 0 -5 -10 2 -21z"/>
</g>
</svg>
